#!OML:ASF H:\Dans Jumps\Project 1\Capture day 1\Session 1\subject.ASF
:FULLY-SPECIFIED
:DEGREES
566
root 0.423533 17.7437 4.00487 8.35288 -1.19075 -1.82119
lowerback -4.90896 0.0252705 0.194728
upperback 1.09224 -0.0290887 1.33268
thorax 3.88112 -0.0258587 1.26337
lowerneck -13.4543 -0.504405 -2.48168
upperneck 26.0593 -0.617055 1.89051
head 10.5882 -0.303127 1.01941
rclavicle -3.8763e-015 -5.1684e-015
rhumerus -28.1564 -20.6695 -77.5938
rradius 22.8065
rwrist 36.1696
rhand -21.5155 -27.7851
rfingers 7.12502
rthumb 4.87658 -57.709
lclavicle -3.8763e-015 -5.1684e-015
lhumerus -26.6183 1.24219 87.384
lradius 20.636
lwrist 4.30223
lhand -24.9669 -4.53547
lfingers 7.12502
lthumb 1.54355 25.4387
rfemur -12.4507 -2.6088 19.8308
rtibia 19.3153
rfoot -13.2051 1.73908
rtoes 20.1638
lfemur -10.5004 6.65265 -17.5202
ltibia 16.4673
lfoot -9.55419 8.84878
ltoes 1.4151
567
root 0.424595 17.7438 4.00301 8.33657 -1.18269 -1.82612
lowerback -4.9128 0.020782 0.206201
upperback 1.08441 -0.0357496 1.33281
thorax 3.8753 -0.0288727 1.25649
lowerneck -13.4572 -0.501264 -2.4931
upperneck 26.0207 -0.610786 1.89619
head 10.5744 -0.300572 1.02391
rclavicle 3.75206e-015 -1.27222e-014
rhumerus -28.1221 -20.5984 -77.6493
rradius 22.8475
rwrist 36.1125
rhand -21.5572 -27.774
rfingers 7.12502
rthumb 4.83635 -57.6988
lclavicle 3.75206e-015 -1.27222e-014
lhumerus -26.5935 1.07323 87.432
lradius 20.779
lwrist 4.4876
lhand -24.9842 -4.54291
lfingers 7.12502
lthumb 1.52679 25.4314
rfemur -12.4341 -2.62247 19.8324
rtibia 19.3077
rfoot -13.1992 1.74548
rtoes 20.1734
lfemur -10.4933 6.65055 -17.5168
ltibia 16.4735
lfoot -9.5543 8.84287
ltoes 1.42911
568
root 0.425626 17.7438 4.00119 8.31933 -1.17303 -1.83063
lowerback -4.91742 0.0165473 0.21805
upperback 1.07675 -0.0420984 1.33274
thorax 3.87009 -0.0317238 1.24923
lowerneck -13.4649 -0.499244 -2.50344
upperneck 25.9879 -0.60621 1.90146
head 10.5637 -0.298726 1.0279
rclavicle -1.2424e-015 -7.7526e-015
rhumerus -28.0877 -20.5277 -77.7047
rradius 22.8876
rwrist 36.0594
rhand -21.594 -27.7773
rfingers 7.12502
rthumb 4.80084 -57.7029
lclavicle -1.2424e-015 -7.7526e-015
lhumerus -26.5655 0.904064 87.4776
lradius 20.922
lwrist 4.66922
lhand -25.0032 -4.54518
lfingers 7.12502
lthumb 1.50846 25.4292
rfemur -12.4156 -2.63995 19.8337
rtibia 19.2987
rfoot -13.1919 1.75508
rtoes 20.1856
lfemur -10.4847 6.65274 -17.5135
ltibia 16.4788
lfoot -9.55562 8.83009
ltoes 1.43545
569
root 0.426601 17.7439 3.99944 8.30144 -1.16323 -1.83334
lowerback -4.92242 0.0133283 0.228565
upperback 1.06979 -0.0469944 1.33199
thorax 3.8658 -0.0338802 1.24213
lowerneck -13.4755 -0.501365 -2.51832
upperneck 25.958 -0.60757 1.91132
head 10.5549 -0.299488 1.03357
rclavicle -9.69075e-016 -1.86858e-014
rhumerus -28.0506 -20.4605 -77.759
rradius 22.9243
rwrist 36.0129
rhand -21.6243 -27.7918
rfingers 7.12502
rthumb 4.77156 -57.718
lclavicle -9.69075e-016 -1.86858e-014
lhumerus -26.5323 0.739584 87.5197
lradius 21.0656
lwrist 4.84416
lhand -25.0185 -4.55964
lfingers 7.12502
lthumb 1.49373 25.4149
rfemur -12.3955 -2.65561 19.8331
rtibia 19.2882
rfoot -13.1833 1.76247
rtoes 20.1928
lfemur -10.475 6.65675 -17.5118
ltibia 16.4837
lfoot -9.55767 8.81465
ltoes 1.43992
570
root 0.42754 17.7439 3.99773 8.28377 -1.15274 -1.83666
lowerback -4.92879 0.0105474 0.240126
upperback 1.06265 -0.0514077 1.33186
thorax 3.86208 -0.0357819 1.23512
lowerneck -13.4845 -0.506524 -2.53651
upperneck 25.9292 -0.612715 1.92213
head 10.5463 -0.302199 1.03966
rclavicle -5.71506e-016 2.98177e-015
rhumerus -28.0118 -20.3972 -77.8103
rradius 22.956
rwrist 35.974
rhand -21.6441 -27.8138
rfingers 7.12502
rthumb 4.75245 -57.7405
lclavicle -5.71506e-016 2.98177e-015
lhumerus -26.4971 0.591864 87.5562
lradius 21.2082
lwrist 4.99943
lhand -25.0412 -4.58734
lfingers 7.12502
lthumb 1.47178 25.3873
rfemur -12.375 -2.67029 19.8331
rtibia 19.2767
rfoot -13.1745 1.76914
rtoes 20.2049
lfemur -10.4655 6.66183 -17.5091
ltibia 16.4889
lfoot -9.56125 8.79665
ltoes 1.44694
571
root 0.428417 17.7438 3.99605 8.26753 -1.14439 -1.83886
lowerback -4.93669 0.00927169 0.250418
upperback 1.05509 -0.0537371 1.33156
thorax 3.85874 -0.0366757 1.22884
lowerneck -13.4938 -0.514004 -2.55514
upperneck 25.9028 -0.620685 1.93163
head 10.5387 -0.306404 1.04501
rclavicle 5.14355e-015 5.76476e-015
rhumerus -27.9714 -20.3326 -77.8596
rradius 22.9848
rwrist 35.9354
rhand -21.6569 -27.8401
rfingers 7.12502
rthumb 4.74005 -57.767
lclavicle 5.14355e-015 5.76476e-015
lhumerus -26.4579 0.454587 87.5886
lradius 21.349
lwrist 5.14498
lhand -25.0708 -4.64206
lfingers 7.12502
lthumb 1.44323 25.3328
rfemur -12.3564 -2.6801 19.8321
rtibia 19.2645
rfoot -13.165 1.77298
rtoes 20.2127
lfemur -10.4579 6.66358 -17.5076
ltibia 16.4947
lfoot -9.56331 8.78422
ltoes 1.45449
572
root 0.429234 17.7438 3.99424 8.25262 -1.13724 -1.84189
lowerback -4.94425 0.00904814 0.261464
upperback 1.04677 -0.0547299 1.33211
thorax 3.8544 -0.0368952 1.22311
lowerneck -13.4985 -0.521388 -2.5763
upperneck 25.8746 -0.627826 1.94064
head 10.5295 -0.310542 1.0507
rclavicle -1.51573e-015 4.96962e-015
rhumerus -27.9279 -20.2734 -77.9039
rradius 23.0061
rwrist 35.9023
rhand -21.6641 -27.8589
rfingers 7.12502
rthumb 4.73314 -57.786
lclavicle -1.51573e-015 4.96962e-015
lhumerus -26.4145 0.331249 87.6172
lradius 21.4872
lwrist 5.27841
lhand -25.1168 -4.72957
lfingers 7.12502
lthumb 1.39879 25.2456
rfemur -12.3397 -2.68481 19.8322
rtibia 19.2521
rfoot -13.1559 1.77344
rtoes 20.2238
lfemur -10.4531 6.66389 -17.5053
ltibia 16.502
lfoot -9.56448 8.7751
ltoes 1.46649
573
root 0.429986 17.7437 3.99241 8.23953 -1.13228 -1.84548
lowerback -4.95333 0.011089 0.273352
upperback 1.03821 -0.0527598 1.33241
thorax 3.85062 -0.0356216 1.21689
lowerneck -13.5004 -0.529 -2.59502
upperneck 25.8445 -0.634947 1.94603
head 10.5191 -0.314856 1.05467
rclavicle -2.21148e-015 -5.76476e-015
rhumerus -27.8833 -20.2208 -77.9437
rradius 23.022
rwrist 35.8725
rhand -21.6765 -27.865
rfingers 7.12502
rthumb 4.72113 -57.7924
lclavicle -2.21148e-015 -5.76476e-015
lhumerus -26.3663 0.218494 87.6423
lradius 21.6231
lwrist 5.40237
lhand -25.178 -4.85224
lfingers 7.12502
lthumb 1.33965 25.1233
rfemur -12.326 -2.68527 19.8334
rtibia 19.2403
rfoot -13.1464 1.77144
rtoes 20.2387
lfemur -10.4512 6.66379 -17.5025
ltibia 16.5105
lfoot -9.56389 8.76986
ltoes 1.47708
574
root 0.430646 17.7436 3.99032 8.22746 -1.12905 -1.84904
lowerback -4.95894 0.0136836 0.283722
upperback 1.02706 -0.0499209 1.33373
thorax 3.84217 -0.0339489 1.21263
lowerneck -13.4908 -0.53537 -2.61347
upperneck 25.8086 -0.639608 1.94777
head 10.5042 -0.318476 1.05755
rclavicle 8.69683e-016 -1.59028e-015
rhumerus -27.8409 -20.1691 -77.9781
rradius 23.0337
rwrist 35.8447
rhand -21.691 -27.8588
rfingers 7.12502
rthumb 4.70715 -57.7865
lclavicle 8.69683e-016 -1.59028e-015
lhumerus -26.3171 0.113222 87.6652
lradius 21.7538
lwrist 5.5264
lhand -25.2457 -5.00706
lfingers 7.12502
lthumb 1.27429 24.9689
rfemur -12.3145 -2.67851 19.835
rtibia 19.229
rfoot -13.1365 1.76277
rtoes 20.2494
lfemur -10.452 6.6585 -17.4995
ltibia 16.5211
lfoot -9.56106 8.77222
ltoes 1.48544
575
root 0.431237 17.7435 3.98809 8.21565 -1.12839 -1.85372
lowerback -4.96166 0.0186556 0.295543
upperback 1.01426 -0.0439154 1.33418
thorax 3.83033 -0.030651 1.20691
lowerneck -13.4737 -0.541054 -2.62729
upperneck 25.7685 -0.643636 1.94596
head 10.4863 -0.321785 1.05841
rclavicle 5.19325e-015 -1.33186e-014
rhumerus -27.8023 -20.1198 -78.0096
rradius 23.0439
rwrist 35.8118
rhand -21.7103 -27.8478
rfingers 7.12502
rthumb 4.68852 -57.7759
lclavicle 5.19325e-015 -1.33186e-014
lhumerus -26.2667 0.0169421 87.6831
lradius 21.8797
lwrist 5.642
lhand -25.3072 -5.1612
lfingers 7.12502
lthumb 1.21485 24.8151
rfemur -12.3045 -2.66772 19.8381
rtibia 19.2185
rfoot -13.1262 1.75171
rtoes 20.2591
lfemur -10.4541 6.65419 -17.4952
ltibia 16.5334
lfoot -9.55985 8.77609
ltoes 1.49668
576
root 0.431789 17.7435 3.98582 8.20189 -1.12972 -1.86067
lowerback -4.96093 0.0251921 0.309693
upperback 1.00049 -0.0359253 1.33484
thorax 3.8155 -0.0263114 1.20024
lowerneck -13.4572 -0.544022 -2.63166
upperneck 25.7282 -0.644138 1.9367
head 10.4683 -0.323428 1.05546
rclavicle 7.20594e-016 -1.55052e-014
rhumerus -27.7689 -20.0798 -78.0345
rradius 23.052
rwrist 35.7846
rhand -21.7288 -27.8304
rfingers 7.12502
rthumb 4.67063 -57.7589
lclavicle 7.20594e-016 -1.55052e-014
lhumerus -26.2155 -0.0733757 87.6976
lradius 21.9986
lwrist 5.75428
lhand -25.3394 -5.2513
lfingers 7.12502
lthumb 1.18377 24.7252
rfemur -12.2927 -2.65679 19.8438
rtibia 19.2093
rfoot -13.1171 1.74175
rtoes 20.2635
lfemur -10.4538 6.65252 -17.4882
ltibia 16.5466
lfoot -9.5598 8.77902
ltoes 1.50124
577
root 0.432296 17.7435 3.98347 8.18815 -1.13422 -1.86782
lowerback -4.95844 0.0331803 0.323916
upperback 0.986567 -0.0259748 1.33541
thorax 3.79948 -0.0209953 1.19359
lowerneck -13.448 -0.545952 -2.62986
upperneck 25.6897 -0.64315 1.9223
head 10.4524 -0.324366 1.04984
rclavicle 1.61513e-015 1.98785e-016
rhumerus -27.7371 -20.0417 -78.056
rradius 23.0599
rwrist 35.7559
rhand -21.7427 -27.8151
rfingers 7.12502
rthumb 4.65721 -57.7439
lclavicle 1.61513e-015 1.98785e-016
lhumerus -26.1636 -0.153101 87.7085
lradius 22.1154
lwrist 5.86383
lhand -25.3347 -5.26092
lfingers 7.12502
lthumb 1.1883 24.7155
rfemur -12.2823 -2.64511 19.8496
rtibia 19.2019
rfoot -13.108 1.73304
rtoes 20.2634
lfemur -10.4528 6.65144 -17.4811
ltibia 16.5594
lfoot -9.55919 8.78467
ltoes 1.51698
578
root 0.43279 17.7435 3.98115 8.17343 -1.14074 -1.87189
lowerback -4.95589 0.0412648 0.334966
upperback 0.973883 -0.0156945 1.33561
thorax 3.78472 -0.0155895 1.18837
lowerneck -13.4472 -0.547 -2.62604
upperneck 25.6547 -0.64059 1.90551
head 10.4392 -0.324646 1.04326
rclavicle 2.70844e-015 -7.55382e-015
rhumerus -27.7044 -20.0144 -78.0719
rradius 23.0642
rwrist 35.739
rhand -21.7473 -27.8036
rfingers 7.12502
rthumb 4.65282 -57.7325
lclavicle 2.70844e-015 -7.55382e-015
lhumerus -26.1122 -0.21476 87.7148
lradius 22.2319
lwrist 5.96435
lhand -25.301 -5.18283
lfingers 7.12502
lthumb 1.22086 24.7934
rfemur -12.2721 -2.63658 19.8518
rtibia 19.1964
rfoot -13.0998 1.72958
rtoes 20.2646
lfemur -10.4494 6.65081 -17.4774
ltibia 16.5712
lfoot -9.56027 8.79001
ltoes 1.54615
579
root 0.433298 17.7435 3.97885 8.15842 -1.14883 -1.87345
lowerback -4.95429 0.0487994 0.343532
upperback 0.963834 -0.00603096 1.33568
thorax 3.77323 -0.0105568 1.18437
lowerneck -13.4555 -0.54743 -2.62329
upperneck 25.6208 -0.636995 1.8899
head 10.4284 -0.324382 1.03744
rclavicle -6.21202e-016 -6.95746e-015
rhumerus -27.6663 -19.9901 -78.0863
rradius 23.0658
rwrist 35.7254
rhand -21.7394 -27.8034
rfingers 7.12502
rthumb 4.66044 -57.7321
lclavicle -6.21202e-016 -6.95746e-015
lhumerus -26.0612 -0.263786 87.7176
lradius 22.3534
lwrist 6.06628
lhand -25.2413 -5.01959
lfingers 7.12502
lthumb 1.27852 24.9563
rfemur -12.2631 -2.63233 19.851
rtibia 19.1928
rfoot -13.0911 1.73199
rtoes 20.2663
lfemur -10.4445 6.65042 -17.4767
ltibia 16.5812
lfoot -9.56016 8.79634
ltoes 1.58248
